<svg xmlns="http://www.w3.org/2000/svg" fill="none" viewBox="0 0 32 56">
    <clipPath id="a">
        <path d="M0 0h134v64H0z"/>
    </clipPath>
    <g clip-path="url(#a)">
        <path fill="#d543ed" d="M2.67 9.14h2.67v2.63H2.67zm5.35 5.26H5.34v2.63H2.67v10.51H0V40.7h2.67v5.25h2.67v2.63h2.68v2.63h16.03v-2.63h2.67v-2.63h2.68v-2.63h2.67V30.17H29.4v-5.26h-2.68v-5.25h-2.67v-2.63h2.67V14.4h-2.67v2.63h-2.67V14.4H18.7v-2.63h-5.35V9.14H10.7v5.26h2.67v2.63H10.7v5.26H8.02v-2.63H5.34v-2.63h2.68z"/>
        <path fill="#9250ff" d="M16.03 17.03h2.68v2.63h2.67v2.63h2.67v5.25h2.67v5.26h2.68v10.51h-2.68v2.63h-2.67v2.63H10.7v-2.63H5.34V40.7H2.67V30.17h2.67v-5.26h8.02V22.3h2.67v-5.26zm-8.01 2.63H5.34v2.63h2.68z"/>
        <path fill="#9787fc" d="M16.03 22.29h2.68v2.62h-2.68V22.3zm8.02 13.14v-5.26h-2.67v-5.26H18.7v2.63h-5.35v2.63H10.7v-2.63H8.02v5.26H5.34v13.14h5.35v2.63h13.36v-5.26h2.67v-7.88z"/>
        <path fill="#fff" d="M18.7 27.54h-2.67v2.63h2.68v-2.63z"/>
        <path fill="#fff" fill-rule="evenodd" d="M10.69 32.8v2.63H8.02v10.51h2.67v2.63h10.69v-2.63h2.67V35.43h-2.67V32.8h-10.7zm0 5.26h2.67v5.25H10.7v-5.25zm10.69 5.25v-5.25H18.7v5.25h2.67z" clip-rule="evenodd"/>
    </g>
</svg>