<svg xmlns="http://www.w3.org/2000/svg" xmlns:xlink="http://www.w3.org/1999/xlink" viewBox="0 0 44 45">
    <defs>
        <path id="a" d="M0 0h43.557v43.557H0z"/>
    </defs>
    <g transform="translate(.135 .921)" fill="none" fill-rule="evenodd">
        <circle fill="#000" cx="21.779" cy="21.696" r="21.002"/>
        <mask id="b" fill="#fff">
            <use xlink:href="#a"/>
        </mask>
        <path d="M33.162 32.3a3.141 3.141 0 0 1-3.146-3.137 3.141 3.141 0 0 1 3.146-3.136 3.141 3.141 0 0 1 3.146 3.136 3.141 3.141 0 0 1-3.146 3.136Zm-11.284-1.328a9.277 9.277 0 1 1 9.298-9.255 9.277 9.277 0 0 1-9.298 9.255Zm.021-28.232c-10.468 0-18.955 8.487-18.955 18.956 0 10.468 8.487 18.955 18.955 18.955 10.47 0 18.956-8.487 18.956-18.955 0-10.47-8.487-18.956-18.956-18.956Z"
              fill="#FFF" fill-rule="nonzero" mask="url(#b)"/>
    </g>
</svg>