<?xml version="1.0" encoding="UTF-8"?>
<svg width="1024px" height="1024px" viewBox="0 0 1024 1024" version="1.1" xmlns="http://www.w3.org/2000/svg" xmlns:xlink="http://www.w3.org/1999/xlink">
    <title>Desktop Copy</title>
    <g id="Desktop-Copy" stroke="none" stroke-width="1" fill="none" fill-rule="evenodd">
        <path d="M512,32 C777.09668,32 992,246.90332 992,512 C992,777.09668 777.09668,992 512,992 C246.90332,992 32,777.09668 32,512 C32,246.90332 246.90332,32 512,32 Z M512,132.565776 C302.444264,132.565776 132.565776,302.444264 132.565776,512 C132.565776,528.50897 133.620112,544.771687 135.665124,560.724489 C187.777382,553.687545 238.841993,538.856336 287.144464,520.514897 C272.078039,511.816292 257.680737,501.958731 241.634646,489.603968 C218.144989,471.406384 230.106001,431.953845 258.996688,430.090598 C401.132207,419.436113 530.807457,336.686162 606.930536,277.102456 C630.253775,258.117371 665.02245,278.191075 660.242504,307.882135 C646.703039,403.598508 639.877105,557.275544 703.545889,685.205925 C716.377613,711.157617 688.191218,741.242427 660.68682,729.998579 C642.911088,723.98526 628.769794,716.174905 614.931371,708.214798 L613.045877,707.128555 C612.417797,706.766268 611.790029,706.403826 611.162261,706.041384 C618.305138,759.799533 631.980198,813.136401 654.330079,863.836029 C793.362922,807.53694 891.434224,671.22136 891.434224,512 C891.434224,302.444264 721.555736,132.565776 512,132.565776 Z" id="Combined-Shape" fill="#a246b3"></path>
    </g>
</svg>