<svg width="428" height="264" viewBox="0 0 428 264" fill="none" xmlns="http://www.w3.org/2000/svg">
<path fill-rule="evenodd" clip-rule="evenodd" d="M8.99985 45.0458C0 62.6935 0 85.7957 0 132C0 178.204 0 201.306 8.99985 218.954C16.9163 234.478 29.5483 247.098 45.0853 255.008C62.7485 264 85.8709 264 132.116 264H295.884C342.129 264 365.252 264 382.915 255.008C398.452 247.098 411.084 234.478 419 218.954C428 201.306 428 178.204 428 132C428 85.7957 428 62.6935 419 45.0458C411.084 29.5224 398.452 16.9015 382.915 8.99196C365.252 0 342.129 0 295.884 0H132.116C85.8709 0 62.7485 0 45.0853 8.99196C29.5483 16.9015 16.9163 29.5224 8.99985 45.0458ZM131.779 181.265C134.557 182.046 136.948 183.918 138.132 186.547L138.133 186.548C139.974 190.636 140.895 192.68 141.098 193.338C143.361 200.68 139.578 206.582 131.995 207.539C131.316 207.625 129.566 207.625 126.066 207.625C103.134 207.625 91.6683 207.625 82.9096 203.136C75.2052 199.188 68.9414 192.887 65.0158 185.137C60.5531 176.327 60.5531 164.794 60.5531 141.729V122.271C60.5531 99.2055 60.5531 87.6726 65.0158 78.8626C68.9414 71.1131 75.2052 64.8125 82.9096 60.8639C91.6683 56.375 103.134 56.375 126.066 56.375C129.566 56.375 131.316 56.375 131.996 56.4608C139.578 57.4181 143.361 63.3201 141.098 70.6621C140.896 71.3202 139.974 73.3656 138.132 77.4539C136.948 80.0824 134.557 81.9537 131.78 82.7347C115.626 87.2779 103.389 100.933 100.914 117.862C100.463 120.949 100.463 124.633 100.463 132C100.463 139.367 100.463 143.051 100.914 146.138C103.389 163.067 115.625 176.722 131.779 181.265ZM289.868 186.547C291.052 183.918 293.443 182.046 296.221 181.265C312.375 176.722 324.611 163.067 327.086 146.138C327.537 143.051 327.537 139.367 327.537 132C327.537 124.633 327.537 120.949 327.086 117.862C324.611 100.933 312.374 87.2779 296.22 82.7347C293.443 81.9537 291.052 80.0824 289.868 77.4539C288.025 73.3648 287.104 71.3203 286.902 70.6621C284.639 63.3201 288.422 57.4181 296.004 56.4608C296.684 56.375 298.434 56.375 301.934 56.375C324.866 56.375 336.332 56.375 345.09 60.8639C352.795 64.8125 359.059 71.1131 362.984 78.8626C367.447 87.6726 367.447 99.2055 367.447 122.271V141.729C367.447 164.794 367.447 176.327 362.984 185.137C359.059 192.887 352.795 199.188 345.09 203.136C336.332 207.625 324.866 207.625 301.934 207.625C298.434 207.625 296.684 207.625 296.005 207.539C288.422 206.582 284.639 200.68 286.902 193.338C287.105 192.68 288.025 190.637 289.865 186.552L289.867 186.548L289.868 186.547Z" fill="#39C4FF"/>
</svg>
