<?xml version="1.0" encoding="UTF-8"?>
<svg width="512px" height="512px" viewBox="0 0 512 512" version="1.1" xmlns="http://www.w3.org/2000/svg" xmlns:xlink="http://www.w3.org/1999/xlink">
    <title>icon</title>
    <g id="icon" stroke="none" stroke-width="1" fill="none" fill-rule="evenodd">
        <rect id="Rectangle" fill="#FF6014" x="16" y="16" width="480" height="480" rx="64"></rect>
        <g id="paulburkeNoneaea918a44fa94a439269b9a2cbaea6e1" transform="translate(160.000000, 38.000000)" fill="#FFFFFF" fill-rule="nonzero" stroke="#FFFFFF" stroke-width="4">
            <g id="Group" transform="translate(123.000000, 218.000000) scale(-1, 1) rotate(-180.000000) translate(-123.000000, -218.000000) translate(0.000000, -0.000000)">
                <path d="M224.520919,435.358198 C201.179283,431.871917 175.418087,421.341926 152.289942,406.04498 C133.573935,393.665126 119.056576,381.498718 102.831292,364.921098 C89.0967323,350.833678 81.9092163,342.438144 71.3058512,328.137279 C54.2266054,305.156285 42.0576428,283.669412 29.8886802,255.423424 C24.9072335,243.755056 17.3638999,223.620006 14.2327048,213.445758 C11.8843085,205.975156 6,186 6.68937127,185.199769 C7,185 8.2549688,185.982404 9.96289338,187.19193 C23.9109441,196.583543 50.3837751,209.674883 79.4896565,221.556697 C107.243431,232.869322 135.851168,240.909112 163.035634,245.106879 C171.64642,246.458702 174.919942,247.241336 175.631578,248.095119 C177.69532,250.869914 175.418087,263.747808 172.286892,267.091792 C167.091955,272.570233 127.240381,271.645301 100.696387,265.384226 C97.5651916,264.67274 94.8609777,264.1747 94.7186507,264.316997 C94.2916695,264.815037 100.055915,271.289558 105.60667,276.625702 C131.439029,301.171965 167.661263,319.101408 210.21705,328.421873 C221.176233,330.769776 222.955321,331.908154 222.884158,336.461663 C222.812994,340.16139 219.254818,348.058883 216.906422,349.624152 C215.981296,350.19334 213.205918,351.260569 210.644032,351.972055 C204.310478,353.679621 179.972553,353.679621 172.571546,351.972055 C169.867332,351.402866 167.447772,350.975975 167.305445,351.118272 C166.736137,351.687461 179.11859,366.770961 185.309817,373.032036 C198.973214,386.906011 213.84639,398.218636 240.248058,415.009702 C242.596454,416.503822 244.94485,418.353686 245.442995,419.207469 C246.652775,421.199629 245.869976,425.112801 243.308089,429.666311 C239.89224,435.642792 235.480101,436.994615 224.520919,435.358198 Z" id="Path"></path>
                <path d="M106.745286,188.757199 C77.2124237,183.919095 29.8175166,166.203097 7.04518889,151.404191 C1.92141515,148.060207 0.85396229,147.064127 0.426981145,145.143115 C0.213490573,143.862441 -1.13686838e-13,110.7072 -1.13686838e-13,71.4331804 L-1.13686838e-13,1.63127052 C7.51084592e-06,1.07898991 0.447719398,0.631278027 1,0.631278027 C1.16032799,0.631278027 1.31830564,0.669828078 1.46061267,0.743677736 C7.22329366,3.73419766 10.5318107,6.16623515 11.3861639,8.03979022 C12.7723277,11.0795804 28.504905,109.734412 49,133 C62.3787425,148.225797 100.411733,158.732495 119.768211,166.131948 C127.880853,169.262486 128.805979,170.329715 127.453872,175.737007 C126.101765,181.073151 122.614752,187.476524 120.622173,188.401456 C118.914249,189.18409 110.65928,189.397536 106.745286,188.757199 Z" id="Path"></path>
            </g>
        </g>
    </g>
</svg>