<svg xmlns="http://www.w3.org/2000/svg" viewBox="0 0 32 32">
    <g fill="none" fill-rule="evenodd">
        <circle fill="#F6F6F6" cx="16" cy="16" r="16"/>
        <g fill="#000" fill-rule="nonzero">
            <path d="M6.27.004C6.27.002 6.268 0 6.265 0 6.263 0 6.26.002 6.26.005L6.26 11.607C6.26 12.63 7.102 13.661 7.102 14.684 7.102 15.468 6.587 16.104 5.951 16.104 5.314 16.104 4.799 15.468 4.799 14.684 4.799 13.661 5.641 12.63 5.641 11.607L5.641.005C5.641.002 5.639 0 5.636 0 5.634 0 5.631.002 5.631.004 4.537 4.826 2.73 9.291.464 13.527-.083 14.55-.12 15.761.216 16.87.384 17.423.529 18.008.651 18.626 1.021 20.512 2.565 22.026 4.487 22.026L7.414 22.026C9.337 22.026 10.88 20.512 11.251 18.626 11.372 18.008 11.517 17.423 11.685 16.87 12.022 15.761 11.984 14.55 11.437 13.527 9.171 9.291 7.364 4.826 6.27.004ZM10.49 24.148C10.49 24.792 9.968 25.315 9.323 25.315L2.578 25.315C1.934 25.315 1.411 24.792 1.411 24.148 1.411 23.503 1.934 22.981 2.578 22.981L9.323 22.981C9.968 22.981 10.49 23.503 10.49 24.148Z" transform="translate(10.05 3.343)"/>
        </g>
    </g>
</svg>