<svg xmlns="http://www.w3.org/2000/svg" viewBox="0 0 512 512">
    <g fill="#FF6014" fill-rule="nonzero" stroke="#FF6014" stroke-width="4">
        <path d="M384.52 38.642c-23.34 3.486-49.102 14.016-72.23 29.313-18.716 12.38-33.233 24.546-49.459 41.124-13.734 14.087-20.922 22.483-31.525 36.784-17.08 22.98-29.248 44.468-41.417 72.714-4.982 11.668-12.525 31.803-15.656 41.977-2.349 7.47-8.233 27.446-7.544 28.246.311.2 1.566-.782 3.274-1.992 13.948-9.392 40.42-22.483 69.527-34.365 27.753-11.312 56.361-19.352 83.546-23.55 8.61-1.352 11.884-2.134 12.596-2.988 2.063-2.775-.214-15.653-3.345-18.997-5.195-5.478-45.047-4.553-71.59 1.708-3.132.711-5.836 1.21-5.978 1.067-.427-.498 5.337-6.973 10.888-12.309 25.832-24.546 62.054-42.475 104.61-51.796 10.96-2.348 12.738-3.486 12.667-8.04-.071-3.7-3.63-11.597-5.978-13.162-.925-.57-3.7-1.637-6.262-2.348-6.334-1.708-30.671-1.708-38.072 0-2.705.57-5.124.996-5.267.854-.569-.57 11.814-15.653 18.005-21.914 13.663-13.874 28.536-25.187 54.938-41.978 2.348-1.494 4.697-3.344 5.195-4.197 1.21-1.993.427-5.906-2.135-10.46-3.416-5.976-7.828-7.328-18.787-5.691ZM266.745 285.243c-29.533 4.838-76.927 22.554-99.7 37.353-5.124 3.344-6.191 4.34-6.618 6.26-.214 1.282-.427 34.437-.427 73.71v69.803a1 1 0 0 0 1.46.887c5.763-2.99 9.072-5.422 9.926-7.296C172.772 462.92 188.505 364.266 209 341c13.379-15.226 51.412-25.732 70.768-33.132 8.113-3.13 9.038-4.198 7.686-9.605-1.352-5.336-4.84-11.74-6.832-12.664-1.708-.783-9.963-.997-13.877-.356Z"/>
    </g>
</svg>