<svg xmlns="http://www.w3.org/2000/svg" viewBox="0 0 982 287">
    <g fill="none" fill-rule="evenodd">
        <path d="M227.895747 229v-71.076172h72.958984v-22.240723h-72.958984V81.9052734h79.666503V59.1938477H201.536372V229h26.359375Zm137.443361 2.353516c35.42041 0 58.720214-24.358887 58.720214-64.250977 0-39.774414-23.41748-64.133301-58.720214-64.133301-35.302735 0-58.720215 24.358887-58.720215 64.133301 0 39.89209 23.299804 64.250977 58.720215 64.250977Zm0-20.946289c-19.887208 0-32.831543-15.768555-32.831543-43.304688 0-27.418457 12.944335-43.187012 32.831543-43.187012 19.887207 0 32.831542 15.768555 32.831542 43.187012 0 27.536133-12.82666 43.304688-32.831542 43.304688Zm123.862696 20.946289c29.771973 0 50.835938-17.886719 53.542481-44.246094h-24.476563c-2.941894 14.356445-13.179687 22.946777-28.830566 22.946777-19.769531 0-32.831543-15.768554-32.831543-42.95166 0-26.594727 12.944336-42.95166 32.596191-42.95166 16.592286 0 26.477051 10.473144 29.065918 23.652832h24.241211c-2.23584-24.358887-21.652343-44.834473-53.54248-44.834473-35.185059 0-58.249512 24.82959-58.249512 64.133301 0 40.009766 23.064453 64.250977 58.484863 64.250977Zm100.327541-.235352c16.239258 0 31.890137-8.708008 39.068359-22.476074h.588379V229h24.358887v-85.314941c0-24.82959-19.181152-40.715821-49.188477-40.715821-30.595703 0-49.659179 16.47461-51.071289 38.833008h24.00586c2.23584-11.061523 11.414551-18.12207 26.124023-18.12207 15.533203 0 24.82959 8.237304 24.82959 22.005371v9.531738l-33.890625 2.000488c-29.418945 1.647461-46.01123 14.944825-46.01123 36.597168 0 22.240723 16.945312 37.303223 41.186523 37.303223Zm7.060547-20.122559c-13.650391 0-22.59375-7.060546-22.59375-17.886718 0-10.590821 8.590332-17.29834 23.770508-18.357422l30.478027-1.882813v9.76709c0 16.121582-13.885742 28.359863-31.654785 28.359863ZM697.035108 229V59.1938477H671.61714V229h25.417968Zm34.393263-143.7998047c8.119629 0 14.591797-6.5898437 14.591797-14.5917969 0-8.1196289-6.472168-14.5917968-14.591797-14.5917968s-14.709473 6.4721679-14.709473 14.5917968c0 8.0019532 6.589844 14.5917969 14.709473 14.5917969ZM744.137356 229V105.205078h-25.417969V229h25.417969Zm114.059766 0v-20.240234h-65.074707v-.470704l64.368653-85.667968v-17.416016h-94.729004v20.240234h65.54541v.470704l-66.016113 86.72705V229h95.905761Zm66.401076 2.353516c28.359863 0 49.776855-16.121582 53.307129-38.715332h-24.123536c-3.412597 10.826171-14.121093 18.12207-28.595214 18.12207-20.357911 0-33.302247-14.23877-33.302247-35.773438v-1.529785h87.433106v-8.708008c0-37.538574-21.416992-61.779785-55.77832-61.779785-34.949707 0-57.308106 25.888672-57.308106 64.72168 0 39.068359 22.005371 63.662598 58.367188 63.662598Zm29.301269-75.665528h-61.897461c1.294434-18.710449 13.768067-32.243164 31.53711-32.243164 17.769043 0 29.771972 13.297364 30.360351 32.243164Z"
              fill="#060606" fill-rule="nonzero"/>
        <path d="m91.8941485 113 27.5578485 35H35v124.015625l-35-44.57757V113h91.8941485ZM35 83H0V29h102l27.451997 35H35v19Z"
              fill="#FF6014"/>
    </g>
</svg>