<?xml version="1.0" encoding="UTF-8"?>
<svg viewBox="0 0 980 247" version="1.1" xmlns="http://www.w3.org/2000/svg" xmlns:xlink="http://www.w3.org/1999/xlink">
    <title>Group 2</title>
    <g id="Page-1" stroke="none" stroke-width="1" fill="none" fill-rule="evenodd">
        <g id="Header-Photo" transform="translate(-260.000000, -134.000000)" fill-rule="nonzero">
            <g id="Group-2" transform="translate(260.000000, 136.000000)">
                <path d="M227.895747,200 L227.895747,128.923828 L300.854731,128.923828 L300.854731,106.683105 L227.895747,106.683105 L227.895747,52.9052734 L307.56225,52.9052734 L307.56225,30.1938477 L201.536372,30.1938477 L201.536372,200 L227.895747,200 Z M365.339108,202.353516 C400.759518,202.353516 424.059322,177.994629 424.059322,138.102539 C424.059322,98.328125 400.641842,73.9692383 365.339108,73.9692383 C330.036373,73.9692383 306.618893,98.328125 306.618893,138.102539 C306.618893,177.994629 329.918697,202.353516 365.339108,202.353516 Z M365.339108,181.407227 C345.4519,181.407227 332.507565,165.638672 332.507565,138.102539 C332.507565,110.684082 345.4519,94.9155273 365.339108,94.9155273 C385.226315,94.9155273 398.17065,110.684082 398.17065,138.102539 C398.17065,165.638672 385.34399,181.407227 365.339108,181.407227 Z M489.201804,202.353516 C518.973777,202.353516 540.037742,184.466797 542.744285,158.107422 L518.267722,158.107422 C515.325828,172.463867 505.088035,181.054199 489.437156,181.054199 C469.667625,181.054199 456.605613,165.285645 456.605613,138.102539 C456.605613,111.507812 469.549949,95.1508789 489.201804,95.1508789 C505.79409,95.1508789 515.678855,105.624023 518.267722,118.803711 L542.508933,118.803711 C540.273093,94.4448242 520.85659,73.9692383 488.966453,73.9692383 C453.781394,73.9692383 430.716941,98.7988281 430.716941,138.102539 C430.716941,178.112305 453.781394,202.353516 489.201804,202.353516 Z M589.529345,202.118164 C605.768603,202.118164 621.419482,193.410156 628.597704,179.64209 L629.186083,179.64209 L629.186083,200 L653.54497,200 L653.54497,114.685059 C653.54497,89.8554688 634.363818,73.9692383 604.356493,73.9692383 C573.76079,73.9692383 554.697314,90.4438477 553.285204,112.802246 L577.291064,112.802246 C579.526904,101.740723 588.705615,94.6801758 603.415087,94.6801758 C618.94829,94.6801758 628.244677,102.91748 628.244677,116.685547 L628.244677,126.217285 L594.354052,128.217773 C564.935107,129.865234 548.342822,143.162598 548.342822,164.814941 C548.342822,187.055664 565.288134,202.118164 589.529345,202.118164 Z M596.589892,181.995605 C582.939501,181.995605 573.996142,174.935059 573.996142,164.108887 C573.996142,153.518066 582.586474,146.810547 597.76665,145.751465 L628.244677,143.868652 L628.244677,153.635742 C628.244677,169.757324 614.358935,181.995605 596.589892,181.995605 Z M697.035108,200 L697.035108,30.1938477 L671.61714,30.1938477 L671.61714,200 L697.035108,200 Z M731.428371,56.2001953 C739.548,56.2001953 746.020168,49.6103516 746.020168,41.6083984 C746.020168,33.4887695 739.548,27.0166016 731.428371,27.0166016 C723.308742,27.0166016 716.718898,33.4887695 716.718898,41.6083984 C716.718898,49.6103516 723.308742,56.2001953 731.428371,56.2001953 Z M744.137356,200 L744.137356,76.2050781 L718.719387,76.2050781 L718.719387,200 L744.137356,200 Z M858.197122,200 L858.197122,179.759766 L793.122415,179.759766 L793.122415,179.289062 L857.491068,93.6210938 L857.491068,76.2050781 L762.762064,76.2050781 L762.762064,96.4453125 L828.307474,96.4453125 L828.307474,96.9160156 L762.291361,183.643066 L762.291361,200 L858.197122,200 Z M924.598198,202.353516 C952.958061,202.353516 974.375053,186.231934 977.905327,163.638184 L953.781791,163.638184 C950.369194,174.464355 939.660698,181.760254 925.186577,181.760254 C904.828666,181.760254 891.88433,167.521484 891.88433,145.986816 L891.88433,144.457031 L979.317436,144.457031 L979.317436,135.749023 C979.317436,98.2104492 957.900444,73.9692383 923.539116,73.9692383 C888.589409,73.9692383 866.23101,99.8579102 866.23101,138.690918 C866.23101,177.759277 888.236381,202.353516 924.598198,202.353516 Z M953.899467,126.687988 L892.002006,126.687988 C893.29644,107.977539 905.770073,94.4448242 923.539116,94.4448242 C941.308159,94.4448242 953.311088,107.742188 953.899467,126.687988 Z"
                      id="Focalize" fill="#060606"/>
                <g id="new"
                   transform="translate(71.500000, 121.500000) scale(-1, 1) rotate(-180.000000) translate(-71.500000, -121.500000) translate(3.000000, 0.000000)"
                   fill="#FF6014" stroke="#FF6014" stroke-width="4">
                    <path d="M124.975769,242.644333 C111.908859,240.712346 97.4874525,234.876955 84.540057,226.399866 C74.0626262,219.539339 65.9356456,212.797097 56.8525497,203.610299 C49.1637887,195.803492 45.1401365,191.15095 39.2042537,183.225858 C29.6431001,170.490512 22.8307781,158.58316 16.0184562,142.930117 C13.2297864,136.463873 9.00694354,125.305659 7.25406538,119.66741 C5.93940676,115.527436 2.64530476,104.45783 3.03122254,104.014368 C3.20511599,103.903662 3.90766162,104.448079 4.86377698,105.11836 C12.6720524,110.322898 27.4918405,117.577709 43.7856398,124.162238 C59.3225144,130.431341 75.3374467,134.88674 90.5556161,137.213011 C95.3760311,137.962149 97.2085855,138.395861 97.6069669,138.869001 C98.762273,140.406705 97.4874525,147.54323 95.7345743,149.396361 C92.8263901,152.432342 70.5170317,151.919774 55.6574055,148.450082 C53.9045273,148.055799 52.390678,147.7798 52.3110017,147.858657 C52.0719729,148.134655 55.2988622,151.722632 58.4062372,154.679756 C72.867482,168.282526 93.1450952,178.218462 116.968303,183.383571 C123.103377,184.684706 124.09933,185.315559 124.059492,187.838971 C124.019654,189.889244 122.027747,194.265787 120.713088,195.13321 C120.195192,195.448637 118.641505,196.040062 117.207332,196.434345 C113.661737,197.380624 100.037093,197.380624 95.8939269,196.434345 C94.3800776,196.118918 93.0255808,195.882348 92.9459045,195.961205 C92.6271994,196.276631 99.5590358,204.635435 103.024954,208.105127 C110.673877,215.793649 119.000048,222.062751 133.779998,231.367834 C135.094657,232.195829 136.409315,233.220965 136.688182,233.694105 C137.365431,234.798098 136.927211,236.966656 135.493038,239.490068 C133.580807,242.802047 131.110843,243.551185 124.975769,242.644333 Z"
                          id="Path"/>
                    <path d="M59.2259494,105.788817 C42.8401034,103.077305 16.5437819,93.1483888 3.90891266,84.8543541 C1.06606709,82.9802213 0.473807595,82.421969 0.236903798,81.3453395 C0.118451899,80.6275865 2.84217094e-14,62.045759 2.84217094e-14,40.0346671 L2.84217094e-14,1.65133268 C-2.30844973e-05,1.09903518 0.447702501,0.651309592 1,0.651309592 C1.16677339,0.651309592 1.33089878,0.693018777 1.47743781,0.772640862 C4.2640809,2.28676533 5.87741316,3.53118298 6.3174346,4.50589381 C7.08652591,6.20954173 15.8154999,61.500561 27.1868822,74.5397404 C34.6098678,83.0730261 55.7118764,88.9614963 66.4515152,93.1085136 C70.9526874,94.8630209 71.465979,95.4611484 70.7157836,98.4916611 C69.9655882,101.482299 68.0308739,105.071064 66.9253228,105.589441 C65.9777076,106.028068 61.3975676,106.147693 59.2259494,105.788817 Z"
                          id="Path"/>
                </g>
            </g>
        </g>
    </g>
</svg>