<?xml version="1.0" encoding="UTF-8"?><svg id="Layer_2" xmlns="http://www.w3.org/2000/svg" viewBox="0 0 59.2 57.62"><g id="print"><g><rect x="28.51" y="36.08" width="2.19" height="21.49" style="fill:#064722;"/><path d="M29.67,37.18c-.59,0-14.51-.12-25.15-10.77-.23-.23-.45-.45-.66-.68-2.23-2.35-3.29-5.15-3.06-8.09,.2-2.59,1.39-5.1,3.36-7.08,1.97-1.97,4.48-3.16,7.08-3.36,2.72-.21,5.31,.68,7.55,2.58,.24-2.92,1.45-5.38,3.51-7.16,1.97-1.69,4.59-2.63,7.38-2.63s5.41,.93,7.38,2.63c2.07,1.77,3.27,4.24,3.51,7.16,2.24-1.89,4.83-2.78,7.55-2.58,2.59,.2,5.1,1.39,7.08,3.36,1.97,1.97,3.16,4.48,3.36,7.08,.22,2.94-.84,5.74-3.06,8.09-.22,.23-.44,.45-.66,.68-10.65,10.65-24.56,10.77-25.15,10.77ZM12,9.39c-2.41,0-4.68,1.12-6.29,2.73-2.9,2.9-4.21,7.92-.26,12.1,.2,.21,.41,.43,.62,.64,10.01,10.01,23.47,10.13,23.6,10.13,.13,0,13.62-.14,23.6-10.13,.21-.21,.42-.42,.62-.64,3.96-4.18,2.64-9.21-.26-12.1-2.9-2.9-7.92-4.21-12.1-.26-.21,.2-.43,.41-.64,.62-.17,.17-.32,.33-.48,.5l-2.08,2.2,.08-3.03c0-.23,.01-.46,.01-.69,0-.3,0-.59-.01-.89-.16-5.76-4.64-8.38-8.74-8.38s-8.58,2.62-8.74,8.38c0,.29-.01,.59-.01,.89,0,.23,0,.46,.01,.69l.08,3.03-2.07-2.19c-.16-.17-.32-.34-.49-.51-.21-.21-.42-.42-.64-.62-1.86-1.76-3.88-2.48-5.81-2.48Z" style="fill:#064722;"/><g><path d="M28.27,25.56h-1.6c0-2.38-2.31-4.31-5.15-4.31s-5.15,1.93-5.15,4.31h-1.6c0-3.26,3.03-5.91,6.75-5.91s6.75,2.65,6.75,5.91Z" style="fill:#064722;"/><path d="M44.49,25.49h-1.6c0-2.38-2.31-4.31-5.15-4.31s-5.15,1.93-5.15,4.31h-1.6c0-3.26,3.03-5.91,6.75-5.91s6.75,2.65,6.75,5.91Z" style="fill:#064722;"/><circle cx="23.35" cy="23.29" r="2.3" style="fill:#064722;"/><circle cx="39.47" cy="23.29" r="2.3" style="fill:#064722;"/></g><path d="M29.67,31.42c-1.88,0-3.62-.97-4.44-2.46l1.4-.76c.54,.99,1.73,1.63,3.04,1.63s2.5-.64,3.04-1.63l1.4,.76c-.82,1.5-2.56,2.46-4.44,2.46Z" style="fill:#064722;"/><path d="M22.58,47.7c-3.75,1.69-8.51,1.1-11.95-1.39l-1.28,1.78c2.5,1.8,5.59,2.75,8.63,2.75,1.9,0,3.79-.37,5.5-1.14,4.59-2.07,7.22-6.64,7.22-12.55h-2.19c0,5.08-2.1,8.83-5.93,10.55Z" style="fill:#064722;"/><path d="M28.51,36.36v1.25c0,3.52-1.36,7.41-3.65,10.39-2.84,3.55-6.68,5.95-11.11,6.95-4.3,.97-8.85,.47-12.82-1.39l-.94,1.98c2.93,1.38,6.15,2.09,9.39,2.09,1.62,0,3.25-.18,4.85-.54,4.92-1.11,9.19-3.78,12.35-7.73v-.02c2.59-3.35,4.12-7.74,4.12-11.73v-1.25h-2.19Z" style="fill:#064722;"/><path d="M58.27,53.55c-3.96,1.87-8.51,2.36-12.82,1.39-4.43-1-8.27-3.4-11.11-6.95-2.28-2.98-3.65-6.86-3.65-10.39v-1.25h-2.19v1.25c0,3.99,1.54,8.38,4.11,11.73v.02c3.17,3.95,7.44,6.62,12.36,7.73,1.6,.36,3.22,.54,4.85,.54,3.23,0,6.46-.71,9.39-2.09l-.94-1.98Z" style="fill:#064722;"/><path d="M48.57,46.31c-3.44,2.49-8.2,3.08-11.95,1.39-3.82-1.72-5.93-5.47-5.93-10.55h-2.19c0,5.91,2.63,10.48,7.22,12.55,1.71,.77,3.59,1.14,5.5,1.14,3.04,0,6.13-.95,8.63-2.75l-1.28-1.78Z" style="fill:#064722;"/></g></g></svg>