<svg xmlns="http://www.w3.org/2000/svg" data-name="Layer 1" width="389.67" height="551.527"><path d="M0 550.337a1.186 1.186 0 0 0 1.183 1.19H388.48a1.19 1.19 0 1 0 0-2.38H1.19A1.186 1.186 0 0 0 0 550.33Z" fill="#ccc"/><path d="M559.937 561.593a44.328 44.328 0 0 1 12.828-.696 1.512 1.512 0 0 0 1.5-1.5 1.531 1.531 0 0 0-1.5-1.5 47.114 47.114 0 0 0-13.625.803 1.5 1.5 0 0 0 .797 2.893Z" transform="translate(-405.165 -174.237)" fill="#ccc" opacity=".5" style="isolation:isolate"/><path d="M51.796 361.264c-8.249-10.972-13.016-23.242-13.172-37.23a3.018 3.018 0 0 1 1.836-3.847l28.116-9.949a3.018 3.018 0 0 1 3.848 1.837l13.173 37.229a3.018 3.018 0 0 1-1.837 3.848L55.644 363.1a3.018 3.018 0 0 1-3.848-1.836Z" fill="#f2f2f2"/><path d="M463.309 534.837a3.018 3.018 0 0 1-3.848-1.837c-8.249-10.972-13.016-23.241-13.172-37.229a2.98 2.98 0 0 1-.11-1.543l-.554.195a3.018 3.018 0 0 0-1.836 3.848c.156 13.988 4.923 26.257 13.172 37.23a3.018 3.018 0 0 0 3.848 1.836l28.116-9.949a3.005 3.005 0 0 0 1.947-2.304Z" transform="translate(-405.165 -174.237)" opacity=".2" style="isolation:isolate"/><path d="m71.316 332.735-18.822 6.719a1.2 1.2 0 0 1-.807-2.26l18.823-6.718a1.2 1.2 0 0 1 .806 2.259ZM54.424 331.782l-4.141 1.478a1.2 1.2 0 1 1-.814-2.256l.008-.003 4.14-1.478a1.2 1.2 0 0 1 .807 2.259ZM74.86 342.665l-18.822 6.718a1.2 1.2 0 0 1-.806-2.258l18.823-6.719a1.2 1.2 0 0 1 .813 2.256ZM73.089 337.7l-18.823 6.719a1.2 1.2 0 0 1-.81-2.258l.003-.001 18.823-6.719a1.2 1.2 0 0 1 .806 2.259Z" fill="#fff"/><circle cx="53.77" cy="315.572" r="5" fill="#ccc"/><path d="M236.77 99.612c.08 7.32 2.41 22.56.74 29.73l-.27-.6a32.902 32.902 0 0 1-4.41 2.95 21.133 21.133 0 0 0-4.9-7.2 25.297 25.297 0 0 1-1.17 9.96c-6.25 2.25-17.22-4.84-24.02-4.99-10.94-.25-21.6-2.97-32.05-5.85-3.71-1.02-7.79-2.35-9.47-5.43s1.326-6.405 1.13-9.88c-1.402-24.756 10.39-28.906 21.61-35.52 2.469-1.456 3.68-4.59 6.47-5.81 3.87-1.69 8.48-.88 12.69-.03a6.413 6.413 0 0 1-4.24-4.64 5.785 5.785 0 0 1 2.26-5.6c2.32-1.79 5.78-2.01 8.74-1.25a29.21 29.21 0 0 1 8.02 3.94 15.93 15.93 0 0 1 4.4 3.56 4.412 4.412 0 0 1 .52 5 5.715 5.715 0 0 1-4.47 2.17 14.96 14.96 0 0 1-3.94-.41 29.973 29.973 0 0 1 15.27 9.24c5.01 5.83 7 13.34 7.09 20.66Z" fill="#2f2e41"/><path d="M61.97 170.156a9.159 9.159 0 0 0 11.961 4.485 8.786 8.786 0 0 0 1.267-.71l25.749 18.917 14.196-9.688-38.075-22.102a9.133 9.133 0 0 0-10.823-2.68 8.74 8.74 0 0 0-4.376 11.56q.049.11.101.218ZM327.36 152.988a9.159 9.159 0 0 0-7.984 9.972 8.785 8.785 0 0 0 .282 1.425l-25.99 18.586 4.792 16.506 32.85-29.31a9.133 9.133 0 0 0 5.913-9.453 8.74 8.74 0 0 0-9.625-7.755q-.12.013-.238.029ZM138.897 533.902l-8.37-.071-3.704-33.034 12.352.104-.278 33.001z" fill="#ffb6b6"/><path d="M112.089 547.21a3.747 3.747 0 0 0 3.71 3.775l16.64.139 2.913-5.905 1.07 5.935 6.278.057-1.585-21.168-2.185-.145-8.91-.614-2.874-.193-.05 5.99-13.368 9.066a3.74 3.74 0 0 0-1.64 3.063Z" fill="#2f2e41"/><path fill="#ffb6b6" d="m249.221 496.825-6.833 4.832-22.308-24.644 10.085-7.133 19.056 26.945z"/><path d="M235.241 523.288a3.747 3.747 0 0 0 5.216.896l13.586-9.61-1.086-6.494 4.336 4.192 5.128-3.623-13.654-16.252-1.858 1.158-7.59 4.708-2.445 1.523 3.459 4.89-5.551 15.168a3.74 3.74 0 0 0 .46 3.444Z" fill="#2f2e41"/><path fill="#ffb6b6" d="m145.174 266.074 24.311-56.455h55.996l-16.151 58.918-64.156-2.463z"/><path d="M93.772 534.155a2.27 2.27 0 0 1-1.645-3.933l.156-.618-.062-.149a6.094 6.094 0 0 0-11.242.042c-1.838 4.428-4.179 8.864-4.755 13.546a18.028 18.028 0 0 0 .316 6.2 72.282 72.282 0 0 1-6.575-30.02 69.767 69.767 0 0 1 .433-7.783q.358-3.178.994-6.31a73.12 73.12 0 0 1 14.5-30.99 19.459 19.459 0 0 0 8.094-8.397 14.843 14.843 0 0 0 1.35-4.056c-.394.052-1.486-5.949-1.189-6.317-.549-.833-1.532-1.247-2.131-2.06-2.983-4.044-7.091-3.338-9.237 2.157-4.582 2.313-4.626 6.148-1.815 9.837 1.79 2.347 2.035 5.522 3.605 8.035-.162.206-.33.407-.491.613a73.59 73.59 0 0 0-7.681 12.169 30.592 30.592 0 0 0-1.827-14.21c-1.748-4.217-5.025-7.769-7.91-11.415a6.28 6.28 0 0 0-11.184 3.084q-.01.08-.017.16.642.363 1.258.77a3.078 3.078 0 0 1-1.24 5.602l-.064.01a30.627 30.627 0 0 0 .808 4.58c-3.702 14.315 4.29 19.53 15.701 19.764.252.129.498.258.75.38a75.114 75.114 0 0 0-4.044 19.028 71.242 71.242 0 0 0 .052 11.504l-.02-.136a18.826 18.826 0 0 0-6.426-10.87c-4.946-4.063-11.933-5.559-17.268-8.824a3.533 3.533 0 0 0-5.412 3.437l.022.142a20.673 20.673 0 0 1 2.319 1.118q.643.362 1.258.77a3.078 3.078 0 0 1-1.24 5.601l-.063.01c-.046.006-.084.013-.13.02a30.654 30.654 0 0 0 5.639 8.829c2.315 12.497 12.256 13.682 22.89 10.043h.007a75.092 75.092 0 0 0 5.044 14.726h18.02c.065-.2.123-.407.181-.607a20.476 20.476 0 0 1-4.986-.297c1.337-1.64 2.674-3.294 4.01-4.934a1.11 1.11 0 0 0 .085-.097c.678-.84 1.363-1.673 2.04-2.513h.001a29.99 29.99 0 0 0-.879-7.64ZM288.767 534.155a2.27 2.27 0 0 0 1.645-3.933l-.155-.618.061-.149a6.094 6.094 0 0 1 11.242.042c1.838 4.428 4.18 8.864 4.756 13.546a18.029 18.029 0 0 1-.317 6.2 72.281 72.281 0 0 0 6.575-30.02 69.762 69.762 0 0 0-.433-7.783q-.358-3.178-.994-6.31a73.118 73.118 0 0 0-14.5-30.99 19.46 19.46 0 0 1-8.093-8.397 14.844 14.844 0 0 1-1.35-4.056c.394.052 1.485-5.949 1.188-6.317.55-.833 1.532-1.247 2.132-2.06 2.982-4.044 7.09-3.338 9.236 2.157 4.582 2.313 4.626 6.148 1.815 9.837-1.789 2.347-2.035 5.522-3.604 8.035.161.206.33.407.49.613a73.592 73.592 0 0 1 7.682 12.169 30.593 30.593 0 0 1 1.826-14.21c1.748-4.217 5.025-7.769 7.91-11.415a6.28 6.28 0 0 1 11.184 3.084l.018.16q-.643.364-1.259.77a3.078 3.078 0 0 0 1.241 5.603l.063.01a30.623 30.623 0 0 1-.807 4.579c3.701 14.315-4.29 19.53-15.702 19.764-.252.129-.497.258-.75.38a75.116 75.116 0 0 1 4.044 19.029 71.245 71.245 0 0 1-.052 11.503l.02-.136a18.825 18.825 0 0 1 6.426-10.87c4.946-4.063 11.933-5.559 17.269-8.824a3.533 3.533 0 0 1 5.41 3.437l-.021.142a20.677 20.677 0 0 0-2.319 1.118q-.643.362-1.258.77a3.078 3.078 0 0 0 1.24 5.601l.064.01.129.02a30.654 30.654 0 0 1-5.639 8.829c-2.315 12.497-12.256 13.682-22.89 10.043h-.007a75.09 75.09 0 0 1-5.044 14.726h-18.02c-.065-.2-.123-.407-.181-.607a20.477 20.477 0 0 0 4.986-.297c-1.337-1.64-2.674-3.294-4.01-4.934a1.112 1.112 0 0 1-.085-.097c-.678-.84-1.362-1.673-2.04-2.513h-.001a29.99 29.99 0 0 1 .879-7.64Z" fill="#f2f2f2"/><path d="m145.174 261.835-24.137 50.351 1.723 200.657h20.674s4.02-5.42 4.02-9.22-6.838-4.349-2.28-9.011 6.078-6.182 6.078-10.74v-72.925l16.3-70.691-1.722 77.674 58.575 69.909 13.645-13.645s3.99-1.76 0-5.537-6.479 2.895-6.754-7.659 2.004-8.274-.275-10.553-34.181-40.362-34.181-40.362 28.863-122.974 14.428-146.525Z" fill="#2f2e41"/><path d="M212.788 267.357s-62.296-22.032-57.737-34.187 12.215-9.816 3.068-13.644-15.206-4.589-9.517-9.907 14.046-10.635 14.046-15.953 6.837-47.102 6.837-47.102h10.945l11.086-18.992h15.66l7.891 17.473h16.66l.813 26.59s1.077 51.366-4.02 53.412-9.654 2.046-5.096 6.604 7.154 6.915 5.096 11.054-15.732 24.652-15.732 24.652Z" fill="#e6e6e6"/><path d="m221.904 152.642 9.823-7.597s16.767 0 19.046 9.116 15.997 31.41 15.997 31.41 13.631-7.859 18.95-7.859 9.116 3.799 9.116-.76-3.04-5.318 1.519-5.318 16.713-4.558 16.713-4.558l12.966 12.966s-1.57 12.104-6.888 11.345-8.357-4.559-8.357 0 3.04 11.395-3.798 12.155-52.42 12.155-52.42 12.155l-31.147-45.582ZM182.4 152.642l-9.822-7.597s-16.768 0-19.047 9.116-16.761 31.41-16.761 31.41-12.867-7.859-18.185-7.859-9.116 3.799-9.116-.76 3.038-5.318-1.52-5.318-16.713-4.558-16.713-4.558L78.27 180.042s1.57 12.104 6.888 11.345 8.357-4.559 8.357 0-3.039 11.395 3.798 12.155 52.42 12.155 52.42 12.155l31.147-45.582Z" fill="#e6e6e6"/><circle cx="197.526" cy="99.202" r="24.244" fill="#ffb6b6"/><path d="M223.98 95.542c-2.85 3.45-7.09 3.27-10.86 2.72-1.19-.17-2.38-.36-3.57-.58-.21-.67-.45-1.34-.72-1.99a21.133 21.133 0 0 0-4.9-7.2 24.905 24.905 0 0 1-.61 7.93q-3.315-.765-6.6-1.71a7.655 7.655 0 0 1-6.38-8.4c-3.15 2.4-6.58 4.48-10.18 4.52a9.5 9.5 0 0 1-8.9-6.93c-.98-3-.83-6.46-.43-9.7.48-3.85 1.56-8.08 4.16-9.63 2.09-1.26 4.5-.36 6.65.66a76.606 76.606 0 0 1 13.4 8.22l.05 1.05c1.08-5.17 4.65-9.16 8.54-9.56 2.62-.26 5.18.95 7.65 2.17a36.077 36.077 0 0 1 8.91 5.61 19.857 19.857 0 0 1 6.02 10.37c.93 4.33.23 9.47-2.23 12.45Z" fill="#2f2e41"/><path d="M199.98 61.896c.249.02-.362-.12-.163-.036a1.976 1.976 0 0 1-.28-.157c-.015-.01-.212-.169-.083-.058a1.946 1.946 0 0 1-.643-.897 8.063 8.063 0 0 1-.38-2.672 8.447 8.447 0 0 0-.595-3.482 2.079 2.079 0 0 0-3.275-.73c-.818.802-.883 2.157-.941 3.236a10.423 10.423 0 0 0 .351 3.323 9.532 9.532 0 0 0 2.918 4.583 9.97 9.97 0 0 0 5.776 2.438 1.514 1.514 0 0 0 1.06-2.56l-2.684-2.549a1.5 1.5 0 1 0-2.121 2.121l2.684 2.549 1.06-2.561a5.966 5.966 0 0 1-1.303-.266 5.022 5.022 0 0 1-1.302-.57 6.227 6.227 0 0 1-1.108-.776 8.569 8.569 0 0 1-.623-.606q-.107-.116-.21-.235c.004.005-.283-.355-.16-.19a8.46 8.46 0 0 1-.806-1.352 3.415 3.415 0 0 1-.197-.521 7.94 7.94 0 0 1-.233-.897 7.792 7.792 0 0 1-.102-1.931 7.895 7.895 0 0 1 .082-.818 3.251 3.251 0 0 0 .083-.435c.006-.364-.05.195-.24.28l-.756.204a.824.824 0 0 1-.617-.36q-.047-.189.027.066a4.896 4.896 0 0 1 .132.606 14.16 14.16 0 0 1 .1 1.433 14.26 14.26 0 0 0 .352 3.017 4.83 4.83 0 0 0 4.197 3.803 1.512 1.512 0 0 0 1.5-1.5 1.53 1.53 0 0 0-1.5-1.5Z" fill="#2f2e41"/><path d="M323.796 159.264c-8.249-10.972-13.016-23.242-13.172-37.23a3.018 3.018 0 0 1 1.836-3.847l28.116-9.949a3.018 3.018 0 0 1 3.848 1.837l13.173 37.229a3.018 3.018 0 0 1-1.837 3.848l-28.116 9.948a3.018 3.018 0 0 1-3.848-1.836Z" fill="#ccc"/><path d="M735.309 332.837a3.018 3.018 0 0 1-3.848-1.837c-8.249-10.972-13.016-23.241-13.172-37.229a2.98 2.98 0 0 1-.11-1.543l-.554.195a3.018 3.018 0 0 0-1.836 3.848c.156 13.988 4.923 26.257 13.172 37.23a3.018 3.018 0 0 0 3.848 1.836l28.116-9.949a3.005 3.005 0 0 0 1.947-2.304Z" transform="translate(-405.165 -174.237)" opacity=".2" style="isolation:isolate"/><path d="m343.316 130.735-18.822 6.719a1.2 1.2 0 0 1-.807-2.26l18.823-6.718a1.2 1.2 0 0 1 .806 2.259ZM326.424 129.782l-4.141 1.478a1.2 1.2 0 1 1-.81-2.258h.003l4.141-1.479a1.2 1.2 0 0 1 .807 2.259ZM346.86 140.665l-18.822 6.718a1.2 1.2 0 1 1-.809-2.257l.003-.001 18.822-6.719a1.2 1.2 0 0 1 .807 2.259ZM345.089 135.7l-18.823 6.719a1.2 1.2 0 1 1-.81-2.258l.003-.001 18.823-6.719a1.2 1.2 0 1 1 .81 2.258Z" fill="#fff"/><circle cx="325.77" cy="113.572" r="5" fill="#3f3d56"/><path d="M78.871 31.82C83.907 19.05 91.87 8.567 103.71 1.116a3.018 3.018 0 0 1 4.24-.447l23.187 18.758a3.018 3.018 0 0 1 .448 4.24L106.746 54.37a3.018 3.018 0 0 1-4.24.447L79.319 36.06a3.018 3.018 0 0 1-.448-4.24Z" fill="#ccc"/><path d="M487.923 211.119a3.018 3.018 0 0 1-.448-4.24c5.036-12.77 12.998-23.252 24.838-30.702a2.98 2.98 0 0 1 1.258-.902l-.457-.369a3.018 3.018 0 0 0-4.24.448c-11.84 7.45-19.802 17.932-24.838 30.702a3.018 3.018 0 0 0 .448 4.24l23.187 18.758a3.005 3.005 0 0 0 2.982.454Z" transform="translate(-405.165 -174.237)" opacity=".2" style="isolation:isolate"/><path d="M113.397 33.531 97.824 21.004a1.2 1.2 0 0 1 1.503-1.869L114.9 31.663a1.2 1.2 0 0 1-1.503 1.868ZM105.372 18.636l-3.426-2.756a1.2 1.2 0 0 1 1.503-1.869l3.426 2.756a1.2 1.2 0 0 1-1.503 1.87ZM106.788 41.747 91.215 29.22a1.2 1.2 0 0 1 1.504-1.87l15.572 12.528a1.2 1.2 0 0 1-1.503 1.869ZM110.092 37.639 94.52 25.112a1.2 1.2 0 1 1 1.498-1.873l.005.004 15.573 12.527a1.2 1.2 0 0 1-1.499 1.873l-.005-.004Z" fill="#fff"/><circle cx="118.845" cy="9.599" r="5" fill="#3f3d56"/><path d="M21.518 181.3c-12.2-16.228-19.253-34.376-19.484-55.066a4.464 4.464 0 0 1 2.717-5.692l41.587-14.715a4.464 4.464 0 0 1 5.692 2.717l19.484 55.067a4.464 4.464 0 0 1-2.717 5.691L27.21 184.017a4.464 4.464 0 0 1-5.692-2.716Z" fill="#ff6014"/><path d="M436.072 354.556a4.464 4.464 0 0 1-5.69-2.717c-12.202-16.228-19.254-34.376-19.485-55.067a4.407 4.407 0 0 1-.163-2.283l-.819.29a4.464 4.464 0 0 0-2.716 5.691c.231 20.69 7.283 38.838 19.484 55.067a4.464 4.464 0 0 0 5.692 2.717l41.587-14.715a4.445 4.445 0 0 0 2.88-3.408Z" transform="translate(-405.165 -174.237)" opacity=".2" style="isolation:isolate"/><path d="M50.391 139.103 22.55 149.04a1.774 1.774 0 1 1-1.193-3.341l27.842-9.938a1.774 1.774 0 1 1 1.192 3.34ZM25.405 137.693l-6.125 2.187a1.774 1.774 0 0 1-1.193-3.341l6.125-2.187a1.774 1.774 0 0 1 1.193 3.341ZM55.634 153.79l-27.842 9.938a1.774 1.774 0 1 1-1.192-3.34l27.841-9.939a1.774 1.774 0 1 1 1.193 3.341ZM53.012 146.447l-27.841 9.938a1.774 1.774 0 1 1-1.193-3.341l27.842-9.938a1.774 1.774 0 1 1 1.192 3.34Z" fill="#fff"/><circle cx="24.437" cy="113.716" r="7.396" fill="#3f3d56"/><path d="M295.958 448.786c-13.727-.07-26.38-3.696-37.613-12.034a3.018 3.018 0 0 1-1.953-3.79l9.089-28.406a3.018 3.018 0 0 1 3.79-1.953l37.613 12.034a3.018 3.018 0 0 1 1.952 3.79l-9.088 28.406a3.018 3.018 0 0 1-3.79 1.953Z" fill="#f2f2f2"/><path d="M704.435 617.567a3.018 3.018 0 0 1-3.79 1.952c-13.727-.07-26.38-3.696-37.613-12.034a2.98 2.98 0 0 1-1.296-.846l-.178.56a3.018 3.018 0 0 0 1.952 3.79c11.233 8.337 23.886 11.964 37.613 12.033a3.018 3.018 0 0 0 3.79-1.952L714 592.664a3.005 3.005 0 0 0-.657-2.944Z" transform="translate(-405.165 -174.237)" opacity=".2" style="isolation:isolate"/><path d="m285.051 415.984-6.037 19.052a1.2 1.2 0 1 1-2.29-.715l.003-.01 6.038-19.052a1.2 1.2 0 0 1 2.286.725ZM274.073 428.858l-1.328 4.191a1.2 1.2 0 1 1-2.29-.715l.003-.01 1.329-4.19a1.2 1.2 0 1 1 2.289.715ZM295.102 419.169l-6.037 19.052a1.2 1.2 0 1 1-2.29-.715l.003-.01 6.038-19.052a1.2 1.2 0 1 1 2.29.716ZM290.077 417.576l-6.038 19.053a1.2 1.2 0 1 1-2.29-.716l.004-.009 6.037-19.052a1.2 1.2 0 1 1 2.29.715Z" fill="#fff"/><circle cx="260.77" cy="419.572" r="5" fill="#ccc"/><ellipse cx="770.986" cy="397.311" rx="3.601" ry="5.177" transform="rotate(-75.779 456.453 570.518)" fill="#fff"/><ellipse cx="737.142" cy="397.093" rx="3.601" ry="5.177" transform="rotate(-75.779 422.61 570.3)" fill="#3f3d56"/><ellipse cx="777.337" cy="425.39" rx="3.601" ry="5.177" transform="rotate(-75.779 462.804 598.597)" fill="#ff6584"/><ellipse cx="787.982" cy="436.996" rx="3.272" ry="2.276" transform="rotate(-83.624 488.005 576.357)" fill="#e6e6e6"/><ellipse cx="790.765" cy="458.204" rx="3.272" ry="2.276" transform="rotate(-83.624 490.788 597.565)" fill="#3f3d56"/><ellipse cx="756.165" cy="417.788" rx="3.272" ry="2.276" transform="rotate(-83.624 456.188 557.15)" fill="#e6e6e6"/><ellipse cx="773.197" cy="411.39" rx="3.272" ry="2.276" transform="rotate(-83.624 473.22 550.75)" fill="#ff6584"/><ellipse cx="752.215" cy="394.103" rx="3.272" ry="2.276" transform="rotate(-83.624 452.237 533.464)" fill="#3f3d56"/><ellipse cx="454.986" cy="385.311" rx="3.601" ry="5.177" transform="rotate(-75.779 140.453 558.518)" fill="#fff"/><ellipse cx="421.142" cy="385.093" rx="3.601" ry="5.177" transform="rotate(-75.779 106.61 558.3)" fill="#3f3d56"/><ellipse cx="461.337" cy="413.39" rx="3.601" ry="5.177" transform="rotate(-75.779 146.804 586.597)" fill="#ff6584"/><ellipse cx="471.982" cy="424.996" rx="3.272" ry="2.276" transform="rotate(-83.624 172.005 564.357)" fill="#e6e6e6"/><ellipse cx="474.765" cy="446.204" rx="3.272" ry="2.276" transform="rotate(-83.624 174.788 585.565)" fill="#3f3d56"/><ellipse cx="440.165" cy="405.788" rx="3.272" ry="2.276" transform="rotate(-83.624 140.188 545.15)" fill="#e6e6e6"/><ellipse cx="457.197" cy="399.39" rx="3.272" ry="2.276" transform="rotate(-83.624 157.22 538.75)" fill="#ff6584"/><ellipse cx="436.215" cy="382.103" rx="3.272" ry="2.276" transform="rotate(-83.624 136.237 521.464)" fill="#3f3d56"/><path d="M270.796 308.264c-8.249-10.972-13.016-23.242-13.172-37.23a3.018 3.018 0 0 1 1.836-3.847l28.116-9.949a3.018 3.018 0 0 1 3.848 1.837l13.173 37.229a3.018 3.018 0 0 1-1.837 3.848l-28.116 9.948a3.018 3.018 0 0 1-3.848-1.836Z" fill="#f2f2f2"/><path d="M682.309 481.837a3.018 3.018 0 0 1-3.848-1.837c-8.249-10.972-13.016-23.241-13.172-37.229a2.98 2.98 0 0 1-.11-1.543l-.554.195a3.018 3.018 0 0 0-1.836 3.848c.156 13.988 4.923 26.257 13.172 37.23a3.018 3.018 0 0 0 3.848 1.836l28.116-9.949a3.005 3.005 0 0 0 1.947-2.304Z" transform="translate(-405.165 -174.237)" opacity=".2" style="isolation:isolate"/><path d="m290.316 279.735-18.822 6.719a1.2 1.2 0 0 1-.807-2.26l18.823-6.718a1.2 1.2 0 0 1 .806 2.259ZM273.424 278.782l-4.141 1.478a1.2 1.2 0 1 1-.81-2.258h.003l4.141-1.479a1.2 1.2 0 0 1 .807 2.259ZM293.86 289.665l-18.822 6.718a1.2 1.2 0 1 1-.809-2.257l.003-.001 18.822-6.719a1.2 1.2 0 0 1 .807 2.259ZM292.089 284.7l-18.823 6.719a1.2 1.2 0 1 1-.81-2.258l.003-.001 18.823-6.719a1.2 1.2 0 1 1 .81 2.258Z" fill="#fff"/><circle cx="272.77" cy="262.572" r="5" fill="#ccc"/></svg>